<svg width="28" height="29" viewBox="0 0 28 29" fill="none" xmlns="http://www.w3.org/2000/svg">
<rect y="0.358887" width="28" height="28" rx="4" fill="#32B4EC"/>
<path d="M22.8737 18.1639V19.1428C22.8737 19.7906 22.4432 20.3447 21.8399 20.5609C21.8402 20.5856 21.8408 20.6101 21.8408 20.6347V23.304C23.0952 23.0567 24.0408 21.9986 24.0408 20.7348V18.1638L22.8737 18.1639Z" fill="white"/>
<path d="M14.7675 10.8074V9.7838C14.7675 8.89782 14.4219 8.03908 13.794 7.36546C13.2062 6.73489 12.4331 6.33423 11.5976 6.22304C11.4127 6.05301 11.075 5.74279 10.7364 5.43316C10.4436 5.16528 10.2096 4.9519 10.0403 4.79897C9.94329 4.71127 9.86196 4.63821 9.80428 4.58733C9.67809 4.476 9.44341 4.26857 9.09566 4.40265L8.7235 4.54645L8.77233 6.7446L8.68062 6.80752C8.08217 7.21833 7.68132 7.85064 7.57833 8.5447L5.98195 9.55636L5.97661 10.2514C5.9728 10.7816 6.18703 11.2805 6.5801 11.6567C6.97332 12.0328 7.497 12.24 8.05501 12.24H9.27068V13.2592C9.27068 13.7655 9.35628 14.2658 9.52474 14.7462L10.4259 17.3144V21.2155C9.48049 21.4266 8.77309 22.2341 8.77095 23.1954L8.76897 23.3573L12.2484 23.3577C12.3436 22.492 13.0121 21.7852 13.8855 21.5879V20.9076C13.8855 19.0464 15.4793 17.5323 17.4384 17.5323H17.5243V18.6411H17.4384C16.1229 18.6411 15.0527 19.6578 15.0527 20.9076V22.6416H14.3812C13.9194 22.6416 13.5311 22.9479 13.4295 23.3579L20.7081 23.359V20.6348C20.7081 18.2147 19.7532 15.9054 18.0193 14.1324L14.7675 10.8074Z" fill="white"/>
</svg>
