<svg width="39" height="92" viewBox="0 0 39 92" fill="none" xmlns="http://www.w3.org/2000/svg">
<path d="M38.4043 48.1143C38.3342 48.0565 38.2324 48.0382 38.1531 48.0648C38.0563 48.0946 37.9675 48.1204 37.8838 48.1449L37.8429 48.1568C37.6364 48.2172 37.4581 48.2688 37.2814 48.3397C34.4903 49.4476 32.2929 51.3456 30.5635 54.1419C30.1364 54.8328 29.8056 55.551 29.5421 56.2672C29.9742 53.8581 30.0744 52.9195 30.1509 50.2238C30.1545 50.1107 30.1545 49.9956 30.1545 49.8814C30.1545 49.5696 30.1545 49.275 30.2227 49.0062C30.3045 48.6877 30.4689 48.37 30.628 48.0626C30.6728 47.9756 30.7176 47.8886 30.7546 47.8122C30.7674 47.7972 30.8089 47.7719 30.825 47.7694C31.6232 47.6477 32.3291 47.3091 32.9835 46.7347C33.6428 46.1529 34.1851 45.4409 34.5955 44.6176C36.0684 41.6671 36.8054 38.4058 36.7867 34.9255C36.7851 34.5898 36.7456 34.263 36.7022 33.9075C36.6824 33.7482 36.6624 33.5853 36.6457 33.4166C36.6362 33.3241 36.5792 33.2418 36.4966 33.2018C36.415 33.1623 36.3165 33.1651 36.2342 33.2149C36.1844 33.246 36.1418 33.2713 36.1031 33.2938C36.0283 33.3383 35.9713 33.373 35.9173 33.4119C34.6609 34.3116 33.5527 35.4317 32.6232 36.7402C31.1063 38.8789 30.2241 41.2972 29.9865 43.9575C29.9628 43.661 29.9389 43.3644 29.9149 43.0679L29.9066 42.9603C29.8134 41.7977 29.7171 40.5954 29.6387 39.4131C29.6189 39.1137 29.5613 38.8224 29.5057 38.5406C29.3983 37.9989 29.2967 37.4873 29.4592 36.9511C29.4962 36.8299 29.5274 36.7079 29.5585 36.5862C29.6353 36.2846 30.0062 35.8202 30.5757 35.3124L30.5971 35.2932C30.8072 35.1154 31.8861 34.1293 32.4982 32.1787C33.1195 30.1971 33.0725 28.1265 33.0383 26.6145L33.0374 26.5742C32.9918 24.4958 32.767 22.9297 32.3085 21.4952C32.2492 21.3118 32.1788 21.1309 32.1043 20.9408C32.0656 20.8418 32.0261 20.7395 31.9855 20.6325C31.9521 20.5419 31.872 20.4761 31.7782 20.4605L31.7323 20.4563C31.6511 20.4563 31.5751 20.4927 31.5236 20.5556L31.0782 21.0978C28.9426 23.6998 27.8934 26.7515 27.9591 30.1684C27.9705 30.7702 28.0155 31.3875 28.0954 32.0248C27.5526 30.1534 26.916 28.3319 26.1921 26.5795C26.177 26.5411 26.1673 26.4936 26.1662 26.4533L26.1612 26.2137C26.1537 25.868 26.1459 25.5103 26.1606 25.1584C26.1629 25.1 26.2007 24.9953 26.2794 24.8921C26.3913 24.7446 26.5154 24.6003 26.6439 24.4502C26.8629 24.1956 27.0891 23.9327 27.2682 23.6326C27.8453 22.667 28.1162 21.5264 28.1207 20.0425C28.1285 18.2957 27.8589 16.4574 27.2713 14.257C26.9502 13.0566 26.4656 11.4971 25.563 10.0833C25.5018 9.98825 25.4334 9.89875 25.3605 9.80398C25.3276 9.76201 25.2931 9.71726 25.2581 9.66918C25.2069 9.60053 25.1362 9.56051 25.0221 9.56051C24.9312 9.56718 24.8499 9.61888 24.8046 9.6992C23.6717 11.7417 23.1074 13.9238 23.0807 16.3702C23.0579 18.4099 23.3767 20.1651 23.7766 21.5522C22.7591 19.6954 21.6284 17.9013 20.4028 16.1995L20.3747 16.1609C20.3469 16.1239 20.3352 16.1058 20.3372 16.1186C20.2601 15.568 20.2067 15.1275 20.1697 14.744C20.1705 14.7381 20.1778 14.7059 20.2351 14.6103C20.316 14.4724 20.4048 14.3373 20.4991 14.1945C20.6883 13.9071 20.8836 13.6097 21.0088 13.2768C21.3866 12.2718 21.4715 11.1319 21.2676 9.79342C20.8199 6.83092 19.5125 4.16332 17.2717 1.63774C17.0411 1.37843 16.7862 1.14913 16.5166 0.906774L16.4421 0.839236C16.3366 0.743905 16.2284 0.646351 16.1191 0.543238C16.0495 0.47709 15.9499 0.452354 15.8534 0.480703C15.7621 0.509608 15.6917 0.585205 15.67 0.679147L15.621 0.893712C15.5877 1.03601 15.5618 1.1483 15.5426 1.26114C15.241 3.05937 15.263 4.98545 15.6102 7.14999C15.9546 9.29675 16.641 11.1483 17.6941 12.7567C16.1149 10.8979 14.5788 9.33705 12.9735 7.95378C12.9663 7.94433 12.9557 7.9157 12.9549 7.90847C13.0803 6.8287 12.8138 5.81147 12.1394 4.79868C11.2538 3.46765 10.0232 2.4532 8.48189 1.78393C7.55959 1.38426 6.6039 1.03046 5.66824 0.683872C5.22003 0.517668 4.77181 0.35202 4.31024 0.17442C3.84644 -0.00984963 3.64807 -0.0426459 3.5404 0.0568543C3.40185 0.185815 3.43524 0.295878 3.49561 0.49599L3.51508 0.561303C4.0807 2.46459 4.83135 3.96988 5.81041 5.16305C7.60772 7.35566 9.70968 8.46962 12.2332 8.56801C12.3216 8.57329 12.3917 8.59775 12.4204 8.61998C12.7757 8.88569 13.0372 9.09831 13.2684 9.30898C13.9996 9.97658 14.7196 10.6878 15.4241 11.4368C14.3763 10.7865 13.0956 10.493 11.6533 10.5658C10.864 10.6055 10.0805 10.7212 9.32295 10.8329L9.29401 10.8373C9.07005 10.8701 8.84719 10.9026 8.62489 10.9341C8.13801 10.9999 7.64723 11.0861 7.21376 11.1617C7.0382 11.1931 6.61892 11.2884 6.52238 11.4916C6.48899 11.5611 6.49178 11.6372 6.52962 11.7064C6.563 11.7667 6.59973 11.8234 6.63979 11.8751C7.89095 13.4969 9.31822 14.565 11.0031 15.14C13.0575 15.8449 14.9444 15.7868 16.6399 14.9577C16.8992 14.8151 17.2119 14.7429 17.5692 14.7429C17.8388 14.7429 18.041 14.7854 18.1081 14.8007C18.2085 14.8173 18.3448 14.8735 18.3727 14.9096C19.4271 16.2946 20.4279 17.7737 21.3624 19.3276C20.5728 18.5605 19.5431 18.0433 18.1403 17.7065C16.9109 17.4138 15.6539 17.351 14.4386 17.2898L14.0316 17.2693C13.6504 17.2498 13.2692 17.2256 12.8767 17.2009L12.2184 17.1603C12.1333 17.1603 12.0523 17.2015 12.0028 17.2698C11.948 17.3435 11.9349 17.4391 11.9672 17.525C11.9936 17.5967 12.0417 17.7231 12.0665 17.7654C13.3483 19.9071 14.8534 21.3885 16.6674 22.2946C18.4408 23.1795 20.0431 23.4135 21.6593 23.0275C21.8463 22.9825 22.063 22.9586 22.287 22.9586C22.9744 22.9586 23.4538 23.1681 23.5545 23.3621C24.4437 25.1945 25.2372 27.0987 25.9216 29.0409C25.2038 28.0522 24.2 27.2493 22.9291 26.6487C21.6665 26.0534 20.3519 25.5092 19.0585 24.9736C18.5026 24.744 17.9445 24.5136 17.3889 24.2779C17.3062 24.2418 17.2086 24.2493 17.1315 24.3001C17.0558 24.3505 17.0108 24.4344 17.0108 24.5247C17.0108 24.6982 18.8554 29.8124 21.5344 31.8277C22.6272 32.6498 23.9733 33.4956 25.6707 33.5353C26.1787 33.5456 26.704 33.6173 27.1007 34.0678C27.1614 34.1395 27.2418 34.1954 27.3294 34.2252C27.4649 34.2696 27.5022 34.3524 27.569 34.6348C28.1187 36.9406 28.5191 39.3172 28.7656 41.7305C28.6911 41.4856 28.6045 41.2382 28.5052 40.9878C27.9056 39.4689 26.8965 38.1398 25.3296 36.8049C24.5219 36.114 23.6761 35.445 22.8581 34.7977L22.8192 34.7671C22.4467 34.4722 22.075 34.1785 21.7044 33.8811C21.6279 33.8196 21.5533 33.7563 21.4668 33.6823L21.2356 33.4845C21.1546 33.4161 21.0341 33.4019 20.9395 33.4492C20.8424 33.4984 20.7843 33.6001 20.7918 33.7087C20.8032 33.8719 20.8124 34.0261 20.821 34.1743L20.8255 34.2435C20.8438 34.5484 20.8611 34.836 20.892 35.1201C21.1819 37.8858 22.0051 40.1949 23.4087 42.179C24.2776 43.4056 25.5241 44.9047 27.4677 45.6137C27.9407 45.7872 28.2837 46.0498 28.6513 46.5212C28.9979 46.9626 29.0625 47.3658 29.0547 47.8733C29.0216 49.9993 28.87 52.1082 28.6026 54.1735C28.54 53.5988 28.4075 53.0071 28.2042 52.3923C27.7832 51.1193 27.1272 49.8817 26.1982 48.6088C25.3964 47.5065 24.562 46.4003 23.7551 45.33L23.7014 45.2585C23.3815 44.8347 23.0618 44.4103 22.7505 43.9951C22.692 43.9097 22.6077 43.8792 22.5591 43.8622C22.4901 43.8286 22.4077 43.8252 22.3345 43.8564C22.2627 43.8869 22.2077 43.9473 22.1835 44.0212L22.174 44.0501C22.1606 44.089 22.1501 44.1235 22.1445 44.1579C21.5881 47.4726 21.9294 50.4423 23.1878 53.2377C23.8024 54.6046 24.6268 56.1521 26.0802 57.2655C26.7438 57.7739 27.2677 58.4871 27.5554 59.2733C27.6163 59.4426 27.6141 59.516 27.6071 59.5443C26.992 62.0896 26.1885 64.5446 25.2116 66.8681C25.4631 65.6436 25.4459 64.3573 25.1588 63.0246C24.7512 61.1358 24.0506 59.3053 23.4257 57.7378L23.2385 57.2683C22.9455 56.5337 22.6506 55.7933 22.3459 55.026C22.3073 54.9279 22.2141 54.8609 22.0897 54.8548C21.9918 54.8548 21.9016 54.9106 21.8549 55.0012L21.7567 55.1858C21.7135 55.2667 21.6732 55.342 21.6387 55.4198C20.3817 58.2531 19.9571 61.1575 20.3775 64.0524C20.678 66.1225 21.1872 67.6047 22.0285 68.8587C22.4639 69.5069 22.8776 70.2289 22.9527 71.1169C22.9705 71.327 22.9622 71.4718 22.8684 71.6367C21.8073 73.493 20.6176 75.2448 19.3147 76.8724C19.3197 76.8635 19.3245 76.8546 19.3295 76.8457C20.2668 75.1345 20.2952 73.2842 20.1995 71.6997C20.1168 70.3415 19.961 68.9852 19.8111 67.6739L19.8024 67.598C19.7421 67.0727 19.682 66.5477 19.6272 66.0216C19.5954 65.7233 19.5601 65.4251 19.5237 65.1225L19.4755 64.7128C19.465 64.6222 19.4096 64.5438 19.33 64.5043C19.182 64.4271 18.9425 64.5463 18.6837 64.852C16.9056 66.9529 15.8022 69.327 15.4038 71.9088C14.9906 74.5855 15.2146 76.8763 16.0893 78.9118C16.1127 78.966 16.1121 79.0767 16.1118 79.1136L16.0648 80.2848C16.0579 80.369 16.0133 80.4641 15.9766 80.4994C14.201 82.2076 12.2462 83.6926 10.1484 84.9285C11.1414 84.0319 11.8553 82.8621 12.318 81.3796C12.8308 79.7365 13.094 78.0263 13.3491 76.3682L13.3713 76.2206C13.4618 75.6381 13.5561 75.0566 13.6524 74.4624L13.7611 73.7906C13.7767 73.6928 13.738 73.595 13.6621 73.5363C13.5867 73.4763 13.4776 73.4618 13.3908 73.4991L13.296 73.5383C13.1947 73.5797 13.1065 73.6167 13.0233 73.6592C9.05753 75.6378 6.44698 80.2526 6.8159 84.6317C6.87377 85.3176 6.81089 85.9619 6.62337 86.6C6.60584 86.6581 6.54964 86.7212 6.52683 86.7318C4.64327 87.5253 2.85236 88.1042 1.05032 88.5017C0.957676 88.5231 0.884221 88.5892 0.854173 88.6784C0.823847 88.7682 0.842214 88.8657 0.903979 88.9391C1.09985 89.1709 1.27039 89.4202 1.41062 89.6812C1.46821 89.7879 1.60537 89.8427 1.70803 89.816C3.17621 89.4814 4.60599 89.0481 5.95898 88.5272C6.06832 88.4833 6.15178 88.4625 6.22996 88.4753C6.531 88.5153 6.84901 88.577 7.20207 88.6645C7.27497 88.6823 7.33534 88.7159 7.33646 88.7129C8.10769 90.2487 9.43313 91.2271 11.3899 91.7032C11.8155 91.8052 12.2546 91.8805 12.6947 91.9266C13.1555 91.9753 13.6693 92 14.2216 92C14.9867 92 15.5323 91.9528 15.539 91.9522C17.235 91.7626 18.6834 91.3813 19.9663 90.7863C20.4927 90.5425 21.0926 90.2143 21.5536 89.6281C21.6418 89.5158 21.627 89.3538 21.5199 89.2596C20.2167 88.1109 18.8899 87.2762 17.4629 86.7081C15.3487 85.8688 13.4228 85.6414 11.5351 86.0041C11.253 86.0589 10.9775 86.1278 10.7099 86.207C12.4758 85.1526 14.1665 83.9133 15.7632 82.5014C15.7938 82.4736 15.8442 82.4491 15.8834 82.4421C16.1447 82.3988 16.4916 82.3454 16.8466 82.3199C16.8794 82.3199 16.9212 82.3357 16.9259 82.3374C17.888 83.413 19.1275 83.9358 20.7153 83.9358C20.7962 83.9358 20.8775 83.9341 20.9585 83.9313C22.6848 83.8757 24.4204 83.4019 26.1178 82.5222C27.3514 81.8793 28.6374 81.1309 29.6801 80.0147C29.9113 79.7665 30.1178 79.4858 30.3 79.2381L30.3178 79.214C30.3985 79.1047 30.48 78.9947 30.5638 78.886C30.6094 78.8274 30.6286 78.7517 30.6166 78.6756C30.6038 78.6022 30.5613 78.5369 30.4886 78.4897C30.4703 78.4797 30.0287 78.2431 29.6256 78.0872C26.9263 77.0452 24.2011 76.9385 21.6014 77.7754C20.7503 78.0486 19.9493 78.4588 19.1695 79.0258C20.6118 77.351 21.9472 75.5149 23.1597 73.5394C23.1728 73.5185 23.2073 73.4621 23.2184 73.4518C23.3244 73.3843 23.4329 73.3204 23.5412 73.2573C23.7351 73.1436 23.936 73.026 24.1246 72.886C24.2838 72.7673 24.3285 72.7642 24.4894 72.8676C24.7169 73.0152 24.9815 73.0919 25.2122 73.1522C26.5616 73.4974 27.9218 73.3254 29.4264 72.6197C30.8008 71.976 31.8575 70.9585 32.7951 69.9552C34.1589 68.4916 35.0501 67.1711 35.5998 65.7992C35.7153 65.5113 35.7977 65.2136 35.8834 64.9023C35.9187 64.7717 35.9549 64.6411 35.9933 64.5127C36.0353 64.3748 35.9618 64.2289 35.8255 64.1808L35.7125 64.1722C35.1564 64.1722 30.1951 64.2536 27.2933 67.0663C26.662 67.6783 26.0961 68.3287 25.5794 69.0408C26.7274 66.6122 27.7009 64.0527 28.4854 61.3959L28.4969 61.357C28.5063 61.3245 28.5205 61.2753 28.53 61.262L29.2889 60.2208C29.3173 60.1791 29.3207 60.1791 29.3652 60.1791C29.3849 60.1791 29.4066 60.1805 29.4314 60.1819L29.5936 60.1916C30.1584 60.2267 30.4909 60.2216 30.7644 60.1788C31.845 60.0085 32.8204 59.4648 33.7461 58.5165C35.9109 56.2986 37.4011 53.5315 38.3014 50.0579C38.3979 49.6858 38.4249 49.31 38.4538 48.9114C38.4666 48.7308 38.4808 48.5446 38.5014 48.3522C38.51 48.26 38.4739 48.1718 38.4043 48.1143Z" fill="#1C1D28"/>
</svg>
