<svg width="39" height="92" viewBox="0 0 39 92" fill="none" xmlns="http://www.w3.org/2000/svg">
<path d="M37.9519 88.4994C36.1516 88.1022 34.3609 87.5233 32.4768 86.7298C32.4543 86.7192 32.3984 86.6561 32.3808 86.5994C32.193 85.9599 32.1302 85.3157 32.188 84.6297C32.5569 80.2503 29.9464 75.6358 25.9815 73.6575C25.8972 73.6147 25.8092 73.5777 25.708 73.5363L25.6139 73.4974C25.5246 73.4593 25.4158 73.4751 25.3438 73.5329C25.2659 73.593 25.2272 73.6908 25.2431 73.7889L25.3516 74.4604C25.4478 75.0546 25.5422 75.6361 25.6326 76.2181L25.6554 76.3704C25.91 78.0243 26.1732 79.7347 26.6859 81.3779C27.1486 82.8604 27.8625 84.0302 28.8555 84.9265C26.7577 83.6908 24.8029 82.2058 23.0276 80.4979C22.9903 80.4621 22.9461 80.3671 22.9397 80.2887L22.8921 79.1166C22.8918 79.0749 22.8913 78.9643 22.9149 78.9096C23.7894 76.8745 24.0133 74.5838 23.6002 71.907C23.2018 69.3253 22.0983 66.9512 20.3202 64.8503C20.1121 64.6043 19.9285 64.4798 19.7743 64.4798C19.7368 64.4798 19.7028 64.4873 19.6761 64.5012C19.5943 64.5418 19.539 64.6205 19.5281 64.7113L19.4805 65.1202C19.4438 65.4237 19.4085 65.7216 19.3768 66.0201C19.322 66.546 19.2619 67.071 19.2015 67.5963L19.1929 67.6722C19.0426 68.9837 18.8868 70.34 18.8045 71.698C18.7088 73.2822 18.7371 75.1324 19.6745 76.844C19.6795 76.8526 19.6839 76.8617 19.6889 76.8704C18.386 75.2428 17.1966 73.4912 16.1355 71.6352C16.0417 71.4701 16.0337 71.3253 16.0512 71.1152C16.1266 70.2266 16.54 69.5046 16.9754 68.857C17.8165 67.603 18.3256 66.1207 18.6264 64.0507C19.0468 61.1557 18.6222 58.2516 17.3652 55.4184C17.3307 55.3403 17.2904 55.2649 17.2473 55.1841L17.149 54.999C17.102 54.9086 17.0016 54.8491 16.8956 54.8539C16.7899 54.8594 16.6967 54.9264 16.6583 55.0237C16.3533 55.7919 16.0584 56.532 15.7655 57.2666L15.5782 57.736C14.9533 59.3039 14.2525 61.1343 13.8452 63.0229C13.558 64.3556 13.5405 65.6419 13.7923 66.8664C12.8152 64.5432 12.012 62.0882 11.3968 59.5426C11.3899 59.5143 11.3876 59.4409 11.4486 59.2716C11.7363 58.4851 12.2601 57.7719 12.924 57.2635C14.3771 56.1502 15.2015 54.6026 15.8161 53.2357C17.0745 50.4403 17.4159 47.4706 16.8594 44.1562C16.8536 44.1215 16.843 44.087 16.8305 44.0495L16.8205 44.0195C16.7963 43.9453 16.7412 43.8852 16.6683 43.8538C16.5971 43.8241 16.5075 43.8296 16.4521 43.8569C16.3965 43.8772 16.3122 43.908 16.2573 43.9883C15.9424 44.4086 15.6227 44.8327 15.3028 45.2566L15.2491 45.328C14.4422 46.3983 13.6078 47.5045 12.806 48.6065C11.877 49.8797 11.221 51.1173 10.8 52.3903C10.5969 53.0051 10.4642 53.5968 10.4016 54.1715C10.1343 52.1062 9.98262 49.9975 9.94952 47.8713C9.94173 47.3638 10.0063 46.9606 10.3532 46.5189C10.7205 46.0481 11.0635 45.7852 11.5365 45.6118C13.4799 44.9025 14.7266 43.4036 15.5955 42.177C16.9991 40.1929 17.8223 37.8841 18.1123 35.1186C18.1431 34.834 18.1607 34.5461 18.1787 34.2415L18.1832 34.1723C18.1918 34.0241 18.201 33.8699 18.2127 33.7065C18.2199 33.5981 18.1618 33.4964 18.0647 33.4472C17.9706 33.3999 17.8502 33.4138 17.7684 33.483L17.5377 33.6803C17.4509 33.7543 17.3766 33.8176 17.2996 33.8793C16.9293 34.1765 16.5576 34.4705 16.185 34.7654L16.1461 34.796C15.3284 35.443 14.4826 36.112 13.6749 36.8029C12.1077 38.1381 11.0986 39.4672 10.499 40.9861C10.4 41.2365 10.3132 41.4842 10.2386 41.7293C10.4851 39.3157 10.8855 36.9388 11.4352 34.6328C11.502 34.3507 11.5393 34.2679 11.6764 34.2229C11.7627 34.1937 11.8431 34.1375 11.9018 34.0681C12.3005 33.6153 12.8255 33.5436 13.3341 33.5333C15.0312 33.4936 16.3773 32.6478 17.4698 31.8257C20.1488 29.8101 21.9934 24.6961 21.9934 24.5227C21.9934 24.4324 21.9484 24.3482 21.8719 24.2973C21.7965 24.2476 21.6946 24.2406 21.6178 24.2748C21.0597 24.5113 20.5016 24.7417 19.9237 24.9805C18.6523 25.5072 17.3377 26.0514 16.0751 26.6464C14.8045 27.247 13.8004 28.0502 13.0826 29.0386C13.7667 27.0967 14.5599 25.1928 15.448 23.3632C15.5501 23.1658 16.0298 22.9563 16.7175 22.9563C16.9412 22.9563 17.158 22.9802 17.3452 23.0252C18.9611 23.4121 20.5634 23.1775 22.3368 22.2923C24.151 21.3862 25.6562 19.9049 26.9383 17.7623C26.9627 17.7209 27.0109 17.5944 27.0368 17.5235C27.0693 17.4368 27.0562 17.3412 27.0023 17.2687C26.9522 17.1997 26.872 17.1586 26.7699 17.1586C26.7691 17.1586 26.7686 17.1586 26.7677 17.1586L26.1273 17.1989C25.7347 17.2236 25.3535 17.2478 24.9724 17.2673L24.5653 17.2878C23.35 17.349 22.093 17.4118 20.8633 17.7045C19.4608 18.0413 18.4311 18.5585 17.6415 19.3256C18.576 17.7717 19.5768 16.2931 20.631 14.9082C20.6594 14.8715 20.7954 14.8153 20.907 14.7967C20.9626 14.7837 21.1652 14.7411 21.4345 14.7411C21.7917 14.7411 22.1044 14.8137 22.3696 14.9593C24.0542 15.7823 25.9461 15.8434 28.0002 15.1386C29.6851 14.5635 31.1121 13.4954 32.363 11.8742C32.4036 11.822 32.4404 11.765 32.4738 11.705C32.5119 11.6358 32.5144 11.5596 32.481 11.4901C32.3842 11.2873 31.9652 11.1919 31.7888 11.1602C31.3559 11.0846 30.8654 10.9985 30.379 10.9326C30.1562 10.9015 29.933 10.869 29.7094 10.8359L29.6807 10.8314C28.9228 10.7197 28.1393 10.6041 27.35 10.5643C25.9077 10.4907 24.6271 10.7847 23.579 11.4357C24.2838 10.6864 25.0038 9.9754 25.735 9.30753C25.9662 9.09686 26.2277 8.88452 26.5841 8.61798C26.6116 8.59685 26.6817 8.57212 26.7677 8.56712C29.2937 8.46845 31.3956 7.35449 33.193 5.16215C34.172 3.96871 34.9227 2.46342 35.4883 0.560132L35.5078 0.494817C35.5681 0.294705 35.6015 0.184643 35.4627 0.055682C35.3556 -0.0438182 35.1669 -0.0143564 34.6767 0.179641C34.2316 0.35057 33.7836 0.516497 33.3237 0.68687C32.3997 1.02901 31.4441 1.38281 30.5218 1.78248C28.9804 2.45175 27.7496 3.4662 26.864 4.79723C26.1896 5.81002 25.923 6.82753 26.0485 7.90258C26.0477 7.91453 26.0371 7.94315 26.0354 7.94649C24.4265 9.33421 22.8885 10.8965 21.3093 12.7559C22.3624 11.1475 23.0487 9.29558 23.3932 7.14882C23.7404 4.98455 23.7624 3.0582 23.4608 1.25997C23.4416 1.1474 23.4157 1.03484 23.3826 0.89393L23.3334 0.676863C23.3111 0.583756 23.241 0.508436 23.1489 0.479531C23.0568 0.452293 22.9536 0.476473 22.8849 0.541788C22.7747 0.645457 22.6667 0.74329 22.5613 0.838343L22.487 0.905325C22.2171 1.14824 21.9623 1.37753 21.7316 1.63685C19.4906 4.16243 18.1835 6.83003 17.7358 9.79225C17.5319 11.1311 17.6165 12.2709 17.9946 13.2759C18.1198 13.6088 18.3151 13.9062 18.5096 14.2014C18.5986 14.3362 18.6876 14.4715 18.7691 14.6105C18.8292 14.7103 18.8342 14.7361 18.834 14.7314C18.797 15.1275 18.7438 15.5688 18.672 16.0986C18.669 16.1052 18.659 16.1208 18.627 16.163L18.6011 16.1989C17.3755 17.9007 16.2448 19.6947 15.2274 21.5516C15.6275 20.1647 15.946 18.4093 15.9235 16.3695C15.8962 13.9229 15.3323 11.7408 14.1988 9.69775C14.154 9.61826 14.0728 9.56657 13.959 9.55878C13.8763 9.55878 13.7968 9.59964 13.7447 9.6694C13.7108 9.71665 13.6763 9.76112 13.6435 9.80336C13.5703 9.89786 13.5018 9.98736 13.4406 10.083C12.5381 11.4968 12.054 13.0557 11.7326 14.2561C11.1453 16.4576 10.8754 18.2959 10.8832 20.0416C10.8877 21.5255 11.1584 22.6661 11.7354 23.6314C11.9149 23.9318 12.1408 24.1948 12.3678 24.4593C12.4883 24.5997 12.6121 24.744 12.7242 24.8918C12.8027 24.9946 12.8405 25.0994 12.8427 25.1578C12.8575 25.5097 12.8497 25.8674 12.8422 26.2131L12.8369 26.4521C12.8361 26.4933 12.8266 26.5405 12.8124 26.5766C12.0879 28.3301 11.4511 30.1525 10.908 32.0241C10.9878 31.3868 11.0329 30.7698 11.0443 30.1678C11.11 26.7509 10.0608 23.6995 7.92518 21.0972L7.48002 20.5555C7.42855 20.4918 7.35232 20.4557 7.27108 20.4557L7.22656 20.4596C7.13141 20.4755 7.05128 20.5413 7.01818 20.6311C6.97756 20.7392 6.93777 20.8412 6.8991 20.9399C6.82453 21.1305 6.75414 21.3112 6.6946 21.4949C6.23637 22.9288 6.01157 24.4952 5.96594 26.573L5.96511 26.6136C5.93089 28.1253 5.88387 30.1962 6.50541 32.1778C7.11722 34.1287 8.19617 35.1145 8.40539 35.2915L8.42765 35.3115C8.99716 35.8193 9.36803 36.2837 9.44482 36.5853C9.47571 36.707 9.50714 36.8291 9.54387 36.9497C9.70635 37.4864 9.6048 37.9978 9.49518 38.55C9.44065 38.8288 9.38389 39.1167 9.36414 39.4122C9.28568 40.5945 9.18941 41.7968 9.09621 42.9594L9.08786 43.067C9.06394 43.3635 9.04001 43.6601 9.01636 43.9567C8.77876 41.2963 7.8968 38.878 6.37938 36.7393C5.45012 35.4308 4.34224 34.3113 3.0858 33.411C3.03154 33.3721 2.97451 33.3374 2.89828 33.2921C2.86127 33.2707 2.81843 33.2451 2.7664 33.2126C2.68794 33.1656 2.58722 33.1614 2.50626 33.2009C2.42335 33.2412 2.36632 33.3232 2.35686 33.416C2.33988 33.5842 2.32013 33.747 2.29926 33.916C2.25725 34.2621 2.21747 34.5889 2.2158 34.9247C2.19716 38.4049 2.93417 41.6662 4.40707 44.6167C4.81745 45.44 5.3597 46.1521 6.01936 46.734C6.67346 47.308 7.37931 47.6465 8.17585 47.7682C8.19338 47.7713 8.23512 47.7966 8.24152 47.8016C8.28464 47.888 8.32943 47.9747 8.37423 48.0617C8.53337 48.3688 8.6978 48.6865 8.7796 49.005C8.84776 49.2744 8.84776 49.5687 8.84776 49.8805C8.84776 49.9948 8.84776 50.1098 8.85138 50.2227C8.92789 52.9186 9.02833 53.8575 9.46012 56.2663C9.19665 55.5501 8.86584 54.8319 8.43877 54.141C6.70935 51.3447 4.51224 49.4467 1.72196 48.3391C1.54445 48.2677 1.36639 48.2163 1.15995 48.1562L1.11877 48.144C1.03503 48.1195 0.946274 48.0934 0.851401 48.0645C0.765709 48.0364 0.668053 48.0556 0.59822 48.1134C0.528664 48.171 0.492217 48.2591 0.501399 48.3508C0.521987 48.542 0.536176 48.7279 0.549253 48.9094C0.577909 49.3074 0.604897 49.6832 0.70144 50.0551C1.60176 53.529 3.09192 56.2958 5.25676 58.514C6.1824 59.4623 7.15784 60.0059 8.23873 60.1763C8.51139 60.2188 8.8447 60.2241 9.40893 60.1891L9.57141 60.1794C9.59618 60.178 9.61788 60.1766 9.63763 60.1766C9.68215 60.1766 9.68576 60.1766 9.71665 60.2222L10.4726 61.2591C10.4823 61.2727 10.4965 61.3219 10.5062 61.3558L10.5174 61.3931C11.302 64.0501 12.2754 66.6093 13.4234 69.0382C12.9067 68.3259 12.3406 67.6755 11.7095 67.0638C8.8077 64.2511 3.84645 64.1696 3.29029 64.1696L3.22101 64.1702L3.17733 64.1783C3.041 64.2266 2.96727 64.3723 3.00929 64.5093C3.04796 64.6385 3.08413 64.7691 3.12558 64.9226C3.20487 65.2108 3.28723 65.5084 3.40269 65.7964C3.95246 67.1688 4.8436 68.489 6.20772 69.9526C7.14504 70.9559 8.20173 71.9735 9.57587 72.6169C11.0808 73.3228 12.4396 73.4951 13.7909 73.1494C14.0207 73.0891 14.285 73.0126 14.5123 72.8653C14.6743 72.7617 14.7185 72.765 14.8777 72.8834C15.0663 73.0235 15.2669 73.1411 15.4616 73.255C15.5693 73.3181 15.6778 73.3817 15.7791 73.4457C15.7952 73.4593 15.8297 73.5157 15.8425 73.5366C17.055 75.5121 18.3908 77.3481 19.833 79.023C19.0529 78.456 18.2519 78.0457 17.4011 77.7725C14.8011 76.9357 12.076 77.0421 9.37694 78.0847C8.97407 78.2406 8.53253 78.4768 8.50304 78.4935C8.44128 78.5341 8.39871 78.5997 8.38536 78.675C8.37367 78.7489 8.39287 78.8245 8.43794 78.8823C8.52224 78.9918 8.60376 79.1019 8.68444 79.2111L8.70225 79.235C8.88448 79.4829 9.09093 79.7634 9.3224 80.0118C10.3649 81.1283 11.6506 81.8768 12.8848 82.5194C14.5819 83.399 16.3174 83.8729 18.0435 83.9285C18.1248 83.9313 18.206 83.9329 18.287 83.9329C19.8748 83.9329 21.1143 83.4101 22.0697 82.3409C22.0814 82.3326 22.1228 82.3167 22.1456 82.3165C22.5107 82.3426 22.8576 82.3957 23.1169 82.4388C23.1578 82.446 23.2082 82.4704 23.2396 82.4988C24.8357 83.9104 26.5262 85.1494 28.2921 86.2039C28.0244 86.1247 27.7487 86.0558 27.4666 86.0005C25.5794 85.6381 23.6536 85.8654 21.5388 86.7048C20.1121 87.2729 18.7853 88.1075 17.4824 89.2562C17.375 89.3504 17.3599 89.5124 17.4484 89.6247C17.9094 90.2109 18.5093 90.5391 19.0354 90.7826C20.3185 91.3782 21.767 91.7595 23.465 91.9491C23.47 91.9494 24.0156 91.9966 24.7807 91.9966C25.3329 91.9966 25.8468 91.9719 26.3073 91.9232C26.7474 91.8771 27.1864 91.8018 27.6124 91.6995C29.5688 91.2237 30.8946 90.2454 31.6541 88.7265C31.6677 88.7134 31.7262 88.6795 31.8002 88.6614C32.1532 88.5739 32.471 88.5122 32.7731 88.4719C32.8443 88.4605 32.9331 88.4796 33.0449 88.5247C34.396 89.0447 35.8258 89.478 37.2917 89.812C37.3123 89.8171 37.3337 89.8196 37.3551 89.8196C37.4536 89.8196 37.5443 89.7654 37.5922 89.677C37.7321 89.4168 37.9027 89.1673 38.0988 88.9352C38.1603 88.8621 38.1787 88.7648 38.1484 88.6748C38.1194 88.5875 38.046 88.5213 37.9519 88.4994Z" fill="#1C1D28"/>
</svg>
