<svg width="214" height="34" viewBox="0 0 214 34" fill="none" xmlns="http://www.w3.org/2000/svg">
<g clip-path="url(#clip0_201_89)">
<path d="M4.6875 6.01562L1.91406 15H-1.03125L3.14844 3.625H5.01562L4.6875 6.01562ZM6.98438 15L4.20312 6.01562L3.84375 3.625H5.73438L9.9375 15H6.98438ZM6.875 10.7578V12.875H1.03906V10.7578H6.875ZM12.1328 3.625H14.3672L16.9062 11.5391L19.4453 3.625H21.6797L17.8125 15H16L12.1328 3.625ZM10.7734 3.625H13.0859L13.5156 12.3438V15H10.7734V3.625ZM20.7266 3.625H23.0469V15H20.2969V12.3438L20.7266 3.625ZM29.7656 6.01562L26.9922 15H24.0469L28.2266 3.625H30.0938L29.7656 6.01562ZM32.0625 15L29.2812 6.01562L28.9219 3.625H30.8125L35.0156 15H32.0625ZM31.9531 10.7578V12.875H26.1172V10.7578H31.9531ZM45.3516 3.625V15H42.6172L38.5938 7.92188V15H35.8516V3.625H38.5938L42.6172 10.7031V3.625H45.3516ZM56.5859 3.625V15H53.8516L49.8281 7.92188V15H47.0859V3.625H49.8281L53.8516 10.7031V3.625H56.5859ZM63.2812 6.01562L60.5078 15H57.5625L61.7422 3.625H63.6094L63.2812 6.01562ZM65.5781 15L62.7969 6.01562L62.4375 3.625H64.3281L68.5312 15H65.5781ZM65.4688 10.7578V12.875H59.6328V10.7578H65.4688ZM77.0312 8.14062V10.25H71.1953V8.14062H77.0312ZM72.1094 3.625V15H69.3672V3.625H72.1094ZM78.875 3.625V15H76.1406V3.625H78.875ZM2.60938 22.625V34H-0.132812V22.625H2.60938ZM7.03125 27.3594V29.4688H1.82812V27.3594H7.03125ZM7.47656 22.625V24.7422H1.82812V22.625H7.47656ZM18.2422 28.0859V28.5469C18.2422 29.4167 18.1198 30.1979 17.875 30.8906C17.6354 31.5781 17.2943 32.1667 16.8516 32.6562C16.4089 33.1406 15.8854 33.513 15.2812 33.7734C14.6771 34.0286 14.0104 34.1562 13.2812 34.1562C12.5469 34.1562 11.875 34.0286 11.2656 33.7734C10.6615 33.513 10.1354 33.1406 9.6875 32.6562C9.24479 32.1667 8.90104 31.5781 8.65625 30.8906C8.41667 30.1979 8.29688 29.4167 8.29688 28.5469V28.0859C8.29688 27.2161 8.41667 26.4349 8.65625 25.7422C8.90104 25.0495 9.24219 24.4609 9.67969 23.9766C10.1224 23.487 10.6458 23.1146 11.25 22.8594C11.8594 22.599 12.5312 22.4688 13.2656 22.4688C13.9948 22.4688 14.6615 22.599 15.2656 22.8594C15.875 23.1146 16.401 23.487 16.8438 23.9766C17.2865 24.4609 17.6302 25.0495 17.875 25.7422C18.1198 26.4349 18.2422 27.2161 18.2422 28.0859ZM15.4609 28.5469V28.0703C15.4609 27.5078 15.4115 27.013 15.3125 26.5859C15.2188 26.1536 15.0781 25.7917 14.8906 25.5C14.7031 25.2083 14.4714 24.9896 14.1953 24.8438C13.9245 24.6927 13.6146 24.6172 13.2656 24.6172C12.901 24.6172 12.5833 24.6927 12.3125 24.8438C12.0417 24.9896 11.8151 25.2083 11.6328 25.5C11.4505 25.7917 11.3125 26.1536 11.2188 26.5859C11.1302 27.013 11.0859 27.5078 11.0859 28.0703V28.5469C11.0859 29.1042 11.1302 29.599 11.2188 30.0312C11.3125 30.4583 11.4505 30.8203 11.6328 31.1172C11.8203 31.4141 12.0495 31.638 12.3203 31.7891C12.5964 31.9401 12.9167 32.0156 13.2812 32.0156C13.6302 32.0156 13.9401 31.9401 14.2109 31.7891C14.4818 31.638 14.7083 31.4141 14.8906 31.1172C15.0781 30.8203 15.2188 30.4583 15.3125 30.0312C15.4115 29.599 15.4609 29.1042 15.4609 28.5469ZM25.8359 22.625H28.5781V30.0547C28.5781 30.9401 28.3932 31.6901 28.0234 32.3047C27.6536 32.9141 27.1354 33.375 26.4688 33.6875C25.8021 34 25.0182 34.1562 24.1172 34.1562C23.2266 34.1562 22.4427 34 21.7656 33.6875C21.0938 33.375 20.5677 32.9141 20.1875 32.3047C19.8125 31.6901 19.625 30.9401 19.625 30.0547V22.625H22.375V30.0547C22.375 30.5234 22.4427 30.9062 22.5781 31.2031C22.7135 31.4948 22.9115 31.7083 23.1719 31.8438C23.4323 31.9792 23.7474 32.0469 24.1172 32.0469C24.4922 32.0469 24.8073 31.9792 25.0625 31.8438C25.3177 31.7083 25.5104 31.4948 25.6406 31.2031C25.7708 30.9062 25.8359 30.5234 25.8359 30.0547V22.625ZM39.8047 22.625V34H37.0703L33.0469 26.9219V34H30.3047V22.625H33.0469L37.0703 29.7031V22.625H39.8047ZM45.2344 34H42.7109L42.7266 31.8906H45.2344C45.7552 31.8906 46.1953 31.7656 46.5547 31.5156C46.9193 31.2656 47.1953 30.8932 47.3828 30.3984C47.5755 29.8984 47.6719 29.2839 47.6719 28.5547V28.0625C47.6719 27.5156 47.6172 27.0365 47.5078 26.625C47.4036 26.2083 47.2474 25.862 47.0391 25.5859C46.8307 25.3047 46.5703 25.0938 46.2578 24.9531C45.9505 24.8125 45.5964 24.7422 45.1953 24.7422H42.6641V22.625H45.1953C45.9661 22.625 46.6719 22.7578 47.3125 23.0234C47.9583 23.2839 48.5156 23.6589 48.9844 24.1484C49.4583 24.6328 49.8229 25.2083 50.0781 25.875C50.3385 26.5365 50.4688 27.2708 50.4688 28.0781V28.5547C50.4688 29.3568 50.3385 30.0911 50.0781 30.7578C49.8229 31.4245 49.4609 32 48.9922 32.4844C48.5234 32.9688 47.9688 33.3438 47.3281 33.6094C46.6927 33.8698 45.9948 34 45.2344 34ZM44.2812 22.625V34H41.5391V22.625H44.2812ZM56.5469 25.0156L53.7734 34H50.8281L55.0078 22.625H56.875L56.5469 25.0156ZM58.8438 34L56.0625 25.0156L55.7031 22.625H57.5938L61.7969 34H58.8438ZM58.7344 29.7578V31.875H52.8984V29.7578H58.7344ZM67.2031 22.625V34H64.4609V22.625H67.2031ZM70.625 22.625V24.7422H61.1172V22.625H70.625ZM74.7031 22.625V34H71.9688V22.625H74.7031ZM86.2578 28.0859V28.5469C86.2578 29.4167 86.1354 30.1979 85.8906 30.8906C85.651 31.5781 85.3099 32.1667 84.8672 32.6562C84.4245 33.1406 83.901 33.513 83.2969 33.7734C82.6927 34.0286 82.026 34.1562 81.2969 34.1562C80.5625 34.1562 79.8906 34.0286 79.2812 33.7734C78.6771 33.513 78.151 33.1406 77.7031 32.6562C77.2604 32.1667 76.9167 31.5781 76.6719 30.8906C76.4323 30.1979 76.3125 29.4167 76.3125 28.5469V28.0859C76.3125 27.2161 76.4323 26.4349 76.6719 25.7422C76.9167 25.0495 77.2578 24.4609 77.6953 23.9766C78.138 23.487 78.6615 23.1146 79.2656 22.8594C79.875 22.599 80.5469 22.4688 81.2812 22.4688C82.0104 22.4688 82.6771 22.599 83.2812 22.8594C83.8906 23.1146 84.4167 23.487 84.8594 23.9766C85.3021 24.4609 85.6458 25.0495 85.8906 25.7422C86.1354 26.4349 86.2578 27.2161 86.2578 28.0859ZM83.4766 28.5469V28.0703C83.4766 27.5078 83.4271 27.013 83.3281 26.5859C83.2344 26.1536 83.0938 25.7917 82.9062 25.5C82.7188 25.2083 82.487 24.9896 82.2109 24.8438C81.9401 24.6927 81.6302 24.6172 81.2812 24.6172C80.9167 24.6172 80.599 24.6927 80.3281 24.8438C80.0573 24.9896 79.8307 25.2083 79.6484 25.5C79.4661 25.7917 79.3281 26.1536 79.2344 26.5859C79.1458 27.013 79.1016 27.5078 79.1016 28.0703V28.5469C79.1016 29.1042 79.1458 29.599 79.2344 30.0312C79.3281 30.4583 79.4661 30.8203 79.6484 31.1172C79.8359 31.4141 80.0651 31.638 80.3359 31.7891C80.612 31.9401 80.9323 32.0156 81.2969 32.0156C81.6458 32.0156 81.9557 31.9401 82.2266 31.7891C82.4974 31.638 82.724 31.4141 82.9062 31.1172C83.0938 30.8203 83.2344 30.4583 83.3281 30.0312C83.4271 29.599 83.4766 29.1042 83.4766 28.5469ZM97.1797 22.625V34H94.4453L90.4219 26.9219V34H87.6797V22.625H90.4219L94.4453 29.7031V22.625H97.1797Z" fill="black"/>
</g>
<defs>
<clipPath id="clip0_201_89">
<rect width="214" height="34" fill="white"/>
</clipPath>
</defs>
</svg>
